<?xml version="1.0" encoding="utf-8"?>
<!-- Generator: Adobe Illustrator 22.0.0, SVG Export Plug-In . SVG Version: 6.00 Build 0)  -->
<svg version="1.1" id="Layer_1" xmlns="http://www.w3.org/2000/svg" xmlns:xlink="http://www.w3.org/1999/xlink" x="0px" y="0px"
	 viewBox="0 0 100 100" style="enable-background:new 0 0 100 100;" xml:space="preserve">
<style type="text/css">
	.st0{fill:#3D5898;}
</style>
<g id="UEdH1C.tif">
	<g>
		<g>
			<path class="st0" d="M65.2,90.7c0-10.4,0-20.8,0-31.6c3.4,0,6.8,0,10.6,0c0.5-4.2,1-8.1,1.6-12.4c-4.2,0-8.1,0-12.5,0
				c0.2-3.8,0.3-7.2,0.5-10.6c0.2-2,1.5-3.2,3.5-3.4c2.8-0.3,5.6-0.5,8.7-0.7c0-3.5,0-7,0-10.8c-5.6-1-11.1-1.4-16.5,0.9
				c-5.5,2.3-8.3,6.7-8.7,12.5c-0.2,3.8,0,7.6,0,11.9c-3.7,0-7.1,0-10.7,0c0,4.3,0,8.2,0,12.4c3.4,0,6.7,0,10.3,0
				c0,10.8,0,21.3,0,32.1c-1,0.1-2,0.2-3,0.2c-11.5,0-23,0-34.5,0c-5.2,0-6.5-1.4-6.6-6.6c0-23.3,0-46.6,0-69.9c0-5,1.4-6.5,6.3-6.5
				c23.4,0,46.8,0,70.2,0c4.9,0,6.4,1.5,6.4,6.4c0,23.4,0,46.8,0,70.2c0,4.7-1.5,6.3-6.1,6.3c-6,0-12,0-18,0
				C66.2,91,65.9,90.8,65.2,90.7z"/>
		</g>
	</g>
</g>
</svg>
