<?xml version="1.0" encoding="utf-8"?>
<!-- Generator: Adobe Illustrator 22.0.0, SVG Export Plug-In . SVG Version: 6.00 Build 0)  -->
<svg version="1.1" id="Layer_1" xmlns="http://www.w3.org/2000/svg" xmlns:xlink="http://www.w3.org/1999/xlink" x="0px" y="0px"
	 viewBox="0 0 100 100" style="enable-background:new 0 0 100 100;" xml:space="preserve">
<style type="text/css">
	.st0{fill:#EA4537;}
	.st1{fill:#36A853;}
	.st2{fill:#4385F3;}
	.st3{fill:#FABB08;}
</style>
<g id="UQjPEM.tif">
	<g>
		<g>
			<path class="st0" d="M13.8,29.9c2.5-6,6.7-10.6,11.8-14.3C40.2,5.3,55.5,4.5,71.2,13.1c0.6,0.3,1.2,0.7,1.7,1.1
				c1.5,1.2,3,2.4,4.3,3.4c-3.8,3.9-7.5,7.7-11.2,11.6c-3.7-3.1-7.9-5-12.8-5.7c-10.8-1.6-21,5.1-25.1,13.9
				c-0.4,0.9-0.8,1.9-1.2,2.8C22.5,36.7,18.2,33.3,13.8,29.9z"/>
			<path class="st1" d="M26.8,56.6c2,4.8,4.6,9.1,9,12.2c8.9,6.2,18.2,6.3,27.6,1.3c0.4-0.2,0.8-0.4,1.2-0.6
				c4.3,3.3,8.5,6.5,12.8,9.8c-6.3,6.5-14.3,9.3-23,9.9c-17.5,1.3-30.9-5.8-40-20.9c-0.3-0.5-0.5-1-0.7-1.6
				C18.1,63.4,22.5,60,26.8,56.6z"/>
			<path class="st2" d="M77.4,79.3c-4.3-3.3-8.5-6.5-12.8-9.8c3.9-3.4,7.1-7.3,8.1-13.1c-7.5,0-14.8,0-22.3,0c0-5.4,0-10.3,0-15.4
				c12.7,0,25.3,0,37.9,0C92,50.9,88.3,70.4,77.4,79.3z"/>
			<path class="st3" d="M26.8,56.6c-4.3,3.4-8.7,6.8-13,10.2c-6.1-12.3-6.2-24.6,0.1-36.9c4.3,3.4,8.7,6.9,13,10.3
				C25.2,45.6,25.2,51.1,26.8,56.6z"/>
		</g>
	</g>
</g>
</svg>
