<?xml version="1.0" encoding="utf-8"?>
<!-- Generator: Adobe Illustrator 22.0.0, SVG Export Plug-In . SVG Version: 6.00 Build 0)  -->
<svg version="1.1" id="Layer_1" xmlns="http://www.w3.org/2000/svg" xmlns:xlink="http://www.w3.org/1999/xlink" x="0px" y="0px"
	 viewBox="0 0 1000 1000" style="enable-background:new 0 0 1000 1000;" xml:space="preserve">
<style type="text/css">
	.st0{fill:#8BFFCE;}
	.st1{fill:#FFFFFF;}
	.st2{fill:none;stroke:#8BFFCE;stroke-width:30;stroke-miterlimit:10;}
</style>
<g>
</g>
<g>
	<g>
		<path class="st0" d="M501,813.2c-1.5-0.1-3-0.2-4.5-0.3c-1.4-7.4-2.8-15-4.2-22.2c-3-15.9-6.1-32.4-9.6-48.5
			c-17.4-78.9-46.6-147.7-89.6-210.3c-31.5-46-57.5-88.5-55.8-142.3c1.1-34.9,9.6-65.2,25.3-90.3c16.1-25.7,39.8-46,70.4-60.2
			c23.6-11,47.2-16.5,70.1-16.5c35.7,0,69.1,13.2,99.4,39.4c26.5,22.9,44.5,49.2,53.5,78.2c9.1,29.2,9,61.3-0.2,95.2
			c-5.8,21.4-13.7,39.5-23.6,53.9c-36,52.7-63.6,103.1-84.3,154c-23,56.6-37,112.3-42.8,170.2C503.7,813.4,502.3,813.3,501,813.2z
			 M521.7,372.5c31.2,0,54.9,16.7,72.3,28.9c9.2,6.5,16.5,11.6,21.6,11.6c6.7,0,9.5-8.1,9.5-28c0-68.9-56.1-125-125-125
			c-68.9,0-125,56.1-125,125c0,10,1.6,17.1,4.9,21.7c3.1,4.3,7.5,6.3,13.7,6.3c11.6,0,27.8-7.4,46.5-15.9
			C465.4,385.6,494,372.5,521.7,372.5z"/>
		<path class="st1" d="M503.1,223c35.6,0,68.9,13.2,99.1,39.2c26.5,22.9,44.4,49.1,53.4,78c9,29.1,9,61.1-0.2,95
			c-5.8,21.3-13.7,39.4-23.5,53.8c-36,52.7-63.6,103.1-84.4,154.1c-23,56.5-37,112-42.8,169.9c-1.2-0.1-2.4-0.2-3.7-0.2
			c-1.4-0.1-2.8-0.2-4.1-0.3c-1.4-7.3-2.8-14.7-4.1-21.9c-3-15.9-6.1-32.4-9.6-48.5c-8.4-38.4-20.1-75.2-34.5-109.5
			c-15-35.5-33.5-69.5-55.1-101c-14.2-20.7-28.9-42.8-39.5-66.4c-11.7-26-17-50.7-16.2-75.7c1.1-34.8,9.6-65.1,25.2-90
			c16-25.6,39.6-45.8,70.2-60C456.7,228.5,480.2,223,503.1,223 M393.6,413.6c11.7,0,28-7.4,46.7-16c25.2-11.5,53.8-24.6,81.4-24.6
			c31.1,0,54.7,16.7,72,28.8c9.6,6.8,16.6,11.7,21.9,11.7c7.1,0,10-8.3,10-28.5c0-33.5-13.1-65.1-36.8-88.8
			c-23.7-23.7-55.2-36.8-88.8-36.8c-33.5,0-65.1,13.1-88.8,36.8c-23.7,23.7-36.8,55.2-36.8,88.8
			C374.5,404.5,380.5,413.6,393.6,413.6 M503.1,222c-23,0-46.6,5.5-70.3,16.5c-62.6,29.1-93.7,81.7-96,150.9
			c-1.8,55.5,26.6,99.9,55.8,142.6c44.1,64.4,72.8,134.5,89.5,210.1c5.2,23.6,9.3,47.4,13.9,71.1c3.2,0.2,6.3,0.4,9.5,0.7
			c11.9-120.4,59.9-226.2,127-324.5c10.9-16,18.6-35.2,23.7-54.1c18.7-68.7-0.2-128-53.4-173.9C572.2,235,538.3,222,503.1,222
			L503.1,222z M393.6,412.6c-11.3,0-18.1-7.2-18.1-27.5c0-68.8,55.7-124.5,124.5-124.5c68.8,0,124.5,55.8,124.5,124.5
			c0,20.4-3,27.5-9,27.5c-14.2,0-45.5-40.5-93.9-40.5C473.3,372,420.6,412.6,393.6,412.6L393.6,412.6z"/>
	</g>
</g>
<circle class="st2" cx="500" cy="500" r="462"/>
</svg>
